<svg width="25" height="19" viewBox="0 0 25 19" fill="none" xmlns="http://www.w3.org/2000/svg">
<path d="M10.4918 1.76566C11.1801 1.60454 11.8849 1.524 12.5918 1.52566C19.5918 1.52566 23.5918 9.52566 23.5918 9.52566C22.9848 10.6613 22.2609 11.7304 21.4318 12.7157M14.7118 11.6457C14.4371 11.9404 14.1059 12.1768 13.7379 12.3408C13.37 12.5048 12.9727 12.5929 12.5699 12.6C12.1671 12.6071 11.767 12.533 11.3934 12.3822C11.0199 12.2313 10.6805 12.0067 10.3956 11.7218C10.1108 11.4369 9.88619 11.0976 9.73531 10.724C9.58442 10.3505 9.51032 9.95038 9.51743 9.54757C9.52454 9.14476 9.61271 8.7475 9.77667 8.37951C9.94064 8.01151 10.177 7.68031 10.4718 7.40566M18.5318 15.4657C16.8224 16.7687 14.7409 17.4905 12.5918 17.5257C5.5918 17.5257 1.5918 9.52566 1.5918 9.52566C2.83569 7.20756 4.56093 5.18227 6.6518 3.58566L18.5318 15.4657Z" stroke="#303030" stroke-opacity="0.4" stroke-width="2" stroke-linecap="round" stroke-linejoin="round"/>
</svg>
